Storyline:

In Istanbul, retired CIA 
operative Bryan Mills and his wife 
are taken 
hostage by the father of a kidnapper 
Mills killed while rescuing his 
daughter.


Cast:

Liam Neeson ... Bryan Mills
Maggie Grace ... Kim
Famke Janssen ... Lenore
Rade ┼áerbed┼╛ija ... Murad
Luke Grimes ... Jamie
Jon Gries ... Casey
Leland Orser ... Sam
D.B. Sweeney ... Bernie
Kevork Malikyan ... Inspector Durmaz
Alain Figlarz ... Suko


General

Format                                   : Matroska
Format version                           : Version 4 / Version 2
File size                                : 301 MiB
Duration                                 : 1h 38mn
Overall bit rate                         : 429 Kbps
Movie name                               : Taken 2 l 2012 l 720p l --=Eng=--Team DMRG --= 
Encoded date                             : UTC 2013-02-26 10:16:12

Video

ID                                       : 1
Format                                   : AVC
Format/Info                              : Advanced Video Codec
Format profile                           : High@L2.1
Format settings, CABAC                   : Yes
Format settings, ReFrames                : 6 frames
Codec ID                                 : V_MPEG4/ISO/AVC
Duration                                 : 1h 38mn
Bit rate                                 : 368 Kbps
Width                                    : 640 pixels
Height                                   : 272 pixels
Display aspect ratio                     : 16:9
Original display aspect ratio            : 16:9
Frame rate mode                          : Constant
Frame rate                               : 23.976 fps
Color space                              : YUV
Chroma subsampling                       : 4:2:0
Bit depth                                : 8 bits
Scan type                                : Progressive
Bits/(Pixel*Frame)                       : 0.088
Stream size                              : 250 MiB (83%)
Writing library                          : x264 core 112
Forced                                   : No
Color primaries                          : BT.709
Transfer characteristics                 : BT.709
Matrix coefficients                      : BT.709




Audio

ID                                       : 2
Format                                   : AC-3
Format/Info                              : Audio Coding 3
Mode extension                           : CM (complete main)
Format settings, Endianness              : Big
Codec ID                                 : A_AC3
Duration                                 : 1h 38mn
Bit rate mode                            : Constant
Bit rate                                 : 64.0 Kbps
Channel(s)                               : 2 channels
Channel positions                        : Front: L R
Sampling rate                            : 44.1 KHz
Bit depth                                : 16 bits
Compression mode                         : Lossy
Stream size                              : 45.0 MiB (15%)
Title                                    : =--DMRG--=
Default                                  : Yes
Forced                                   : No


Subtitle

ID                                       : 4
Format                                   : UTF-8
Codec ID                                 : S_TEXT/UTF8
Codec ID/Info                            : UTF-8 Plain Text
Language                                 : English
Default                                  : Yes
Forced                                   : No
